<svg width="231" height="184" viewBox="0 0 231 184" fill="none" xmlns="http://www.w3.org/2000/svg">
<path d="M79.3875 178.805C90.5488 179.178 101.507 178.771 112 174.902C125.382 168.211 141.758 180.739 155.5 173.962C163.051 170.238 169.997 165.198 176.695 160.129C187.568 151.901 198.599 143.281 208.159 133.509C217 124.471 220.02 99.4481 223.88 87.0109C230.603 65.3459 215.016 36.5691 193.191 30.2835C172.934 24.4495 149.612 24.9917 128.753 24.1225C114.929 23.5466 102.196 24.9327 89.2683 29.741C78.9746 33.5698 68.3235 35.815 57.8823 39.1956C40.1639 44.9323 25.1985 57.4643 16.0729 73.8365C9.40588 85.798 7.55429 100.726 5.57217 114.135C3.68741 126.884 6.42498 138.399 14.2905 148.737C22.4064 159.403 32.7125 169.365 45.4828 173.962C56.1406 177.799 68.1368 178.43 79.3875 178.805Z" fill="white"/>
<path d="M114.377 173.962C103.166 178.705 91.3945 179.206 79.3875 178.805C68.1368 178.43 56.1406 177.799 45.4828 173.962C32.7125 169.365 22.4064 159.403 14.2905 148.737C6.42498 138.399 3.68741 126.884 5.57217 114.135C7.55429 100.726 9.40588 85.798 16.0729 73.8365C25.1985 57.4643 40.1639 44.9323 57.8823 39.1956C68.3235 35.815 78.9746 33.5698 89.2683 29.741C102.196 24.9327 114.929 23.5466 128.753 24.1225C149.612 24.9917 172.934 24.4495 193.191 30.2835C215.016 36.5691 230.603 65.3459 223.88 87.0109C220.02 99.4481 217 124.471 208.159 133.509C198.599 143.281 187.568 151.901 176.695 160.129C169.997 165.198 163.051 170.238 155.5 173.962C141.758 180.739 125.382 168.211 112 174.902" stroke="black" stroke-width="10" stroke-linecap="round"/>
<path d="M79.3875 159.805C90.5488 160.178 101.507 159.771 112 155.902C125.382 149.211 141.758 161.739 155.5 154.962C163.051 151.238 169.997 146.198 176.695 141.129C187.568 132.901 198.599 124.281 208.159 114.509C217 105.471 220.02 80.4481 223.88 68.0109C230.603 46.3459 215.016 17.5691 193.191 11.2835C172.934 5.44949 149.612 5.99167 128.753 5.12254C114.929 4.54656 102.196 5.93265 89.2683 10.741C78.9746 14.5698 68.3235 16.815 57.8823 20.1956C40.1639 25.9323 25.1985 38.4643 16.0729 54.8365C9.40588 66.798 7.55429 81.7262 5.57217 95.1347C3.68741 107.884 6.42498 119.399 14.2905 129.737C22.4064 140.403 32.7125 150.365 45.4828 154.962C56.1406 158.799 68.1368 159.43 79.3875 159.805Z" fill="white"/>
<path d="M114.377 154.962C103.166 159.705 91.3945 160.206 79.3875 159.805C68.1368 159.43 56.1406 158.799 45.4828 154.962C32.7125 150.365 22.4064 140.403 14.2905 129.737C6.42498 119.399 3.68741 107.884 5.57217 95.1347C7.55429 81.7262 9.40588 66.798 16.0729 54.8365C25.1985 38.4643 40.1639 25.9323 57.8823 20.1956C68.3235 16.815 78.9746 14.5698 89.2683 10.741C102.196 5.93265 114.929 4.54656 128.753 5.12254C149.612 5.99167 172.934 5.44949 193.191 11.2835C215.016 17.5691 230.603 46.3459 223.88 68.0109C220.02 80.4481 217 105.471 208.159 114.509C198.599 124.281 187.568 132.901 176.695 141.129C169.997 146.198 163.051 151.238 155.5 154.962C141.758 161.739 125.382 149.211 112 155.902" stroke="#237726" stroke-width="10" stroke-linecap="round"/>
<path d="M100.479 67.6134C103.126 68.3195 105.565 68.2425 108.161 68.198C106.725 64.5791 106.291 60.6935 105.104 57.0412C103.816 53.0732 104.43 49.0869 106.684 45.5976C111.045 38.8461 120.135 36.6409 127.781 37.0464C131.022 37.2182 134.349 37.3354 137.471 38.2968C139.353 38.8761 142.018 39.7958 143.463 41.2525C144.906 42.7062 145.266 44.8771 147.525 45.3323C150.02 45.8351 153.054 43.9375 155.247 42.9956C158.866 41.4411 162.675 40.2517 166.479 39.2568C168.057 38.844 169.78 38.4528 171.292 37.8295C171.978 37.5469 172.953 36.9949 171.944 37.9937C169.831 40.0858 167.754 42.2153 165.626 44.3597C164.381 45.6139 163.298 46.9599 161.928 48.0732C160.484 49.247 159.071 50.3213 157.779 51.6731C157.233 52.2446 156.181 53.0852 155.207 53.5026C155.675 53.4276 156.167 53.3523 156.45 53.3025C162.551 52.2266 169.057 51.9659 175.003 50.1068C175.288 50.0177 177.314 49.3874 176.958 49.7658C175.865 50.9283 174.736 52.0098 173.461 52.9614C170.287 55.3301 167.073 57.2553 163.696 59.3148C162.436 60.0833 161.1 60.8118 159.785 61.4747C158.528 62.1076 157.487 62.9506 156.25 63.6346C154.737 64.4706 152.883 64.4496 152.815 66.3124C152.759 67.8309 152.087 69.6492 151.737 71.1374C151.237 73.2627 151.241 75.4922 150.897 77.6424C150.475 80.2786 150.748 82.9266 150.22 85.5873C149.599 88.7155 149.232 91.8773 148.628 95.01C148.337 96.5161 147.928 98.0189 147.575 99.5067C147.386 100.304 146.666 100.893 146.484 101.717C146.265 102.713 145.017 104.135 144.466 104.963C143.477 106.449 142.515 108.116 141.257 109.384C138.354 112.31 134.611 114.902 131.153 117.114C129.405 118.233 127.803 119.492 125.913 120.373C124.398 121.08 122.863 121.908 121.3 122.495C119.982 122.991 118.569 123.126 117.214 123.48C107.765 125.952 98.1411 125.715 88.5073 126.726C82.3538 127.372 76.2665 126.902 70.3558 125.021C66.1585 123.686 63.0216 120.707 59.1741 118.769C57.3577 117.854 56.1747 116.191 54.2204 115.538C53.9175 115.466 53.625 115.385 53.3576 115.295C52.3759 114.966 53.6928 115.381 54.0094 115.472C54.0808 115.493 54.1511 115.515 54.2204 115.538C54.8787 115.694 55.586 115.807 56.1906 115.876C59.6066 116.269 63.2728 116.37 66.6954 115.977C68.9353 115.72 71.7354 115.683 73.8407 114.79C74.869 114.354 76.0463 114.377 77.0999 113.994C78.3998 113.523 79.7422 113.115 81.011 112.567C82.9762 111.718 84.9712 110.253 86.1381 108.424C86.3674 108.065 86.7155 107.742 86.7022 107.742H85.4612C84.7986 107.742 83.903 107.146 83.3677 106.833C81.8479 105.943 80.4516 104.857 78.7922 104.218C75.429 102.922 72.6297 99.3068 70.3433 96.5763C68.5595 94.4461 67.4206 91.4967 65.492 89.5534C65.2597 89.3193 64.188 88.772 64.4892 88.8587C65.1098 89.0374 65.7645 89.1304 66.3946 89.2755C68.4848 89.7569 70.8308 89.6108 72.9381 89.5534C73.4478 89.5395 76.991 89.0201 76.0971 88.5935C74.7547 87.9528 73.6072 87.2474 72.374 86.383C67.4028 82.8984 61.3237 80.5568 58.8482 74.4341C58.2649 72.9917 57.7678 71.3761 57.369 69.8743C57.1871 69.1895 57.0636 68.5315 56.7997 67.9291C56.7465 67.8785 56.6939 67.828 56.6419 67.7776C56.0919 67.244 55.5328 66.844 55.1627 66.1356C54.7468 65.3393 56.0841 66.852 56.2408 67.0324C56.4847 67.3132 56.6615 67.6135 56.7997 67.9291C58.5597 69.6005 60.9804 71.3148 63.1855 72.2742C65.1257 73.1184 66.7455 73.1837 68.8265 73.1837C69.8701 73.1837 71.5302 72.8795 72.4869 72.4511C72.9496 72.2438 73.3148 72.3042 72.8253 71.9206C72.3045 71.5124 71.8143 71.1802 71.3587 70.6701C70.7746 70.0162 70.1841 68.9172 69.5034 68.4091C68.503 67.6624 67.5414 66.8612 66.8584 65.7945C66.0918 64.5972 65.5961 63.143 65.0909 61.8158C64.3 59.7382 63.0784 57.5207 62.7969 55.2982C62.4025 52.1857 62.7929 49.184 63.4613 46.1533C63.6071 45.4919 63.6869 45.0143 63.6869 44.3092C63.6869 44.004 63.7017 42.6316 63.737 42.6672C64.5352 43.4714 64.6173 45.1975 65.2664 46.1786C65.6661 46.7828 65.8203 47.4797 66.2818 48.048C66.728 48.5975 67.3373 49.009 67.7484 49.5889C69.036 51.4053 70.9709 52.9117 72.537 54.4898C73.9373 55.9007 75.5346 57.2632 77.2253 58.3043C79.5282 59.7224 81.6146 61.0365 84.0948 62.1568C86.5338 63.2585 88.9335 64.2662 91.4406 65.2135C94.3481 66.3121 97.4836 66.8145 100.479 67.6134Z" fill="black"/>
<path d="M109.717 68.1818C106.518 68.1818 103.648 68.4587 100.479 67.6134C97.4836 66.8145 94.3481 66.3121 91.4406 65.2135C88.9335 64.2662 86.5338 63.2585 84.0948 62.1568C81.6146 61.0365 79.5282 59.7224 77.2253 58.3043C75.5346 57.2632 73.9373 55.9007 72.537 54.4898C70.9709 52.9117 69.036 51.4053 67.7484 49.5889C67.3373 49.009 66.728 48.5975 66.2818 48.048C65.8203 47.4797 65.6661 46.7828 65.2664 46.1786C64.6173 45.1975 64.5352 43.4714 63.737 42.6672C63.7017 42.6316 63.6869 44.004 63.6869 44.3092C63.6869 45.0143 63.6071 45.4919 63.4613 46.1533C62.7929 49.184 62.4025 52.1857 62.7969 55.2982C63.0784 57.5207 64.3 59.7382 65.0909 61.8158C65.5961 63.143 66.0918 64.5972 66.8584 65.7945C67.5414 66.8612 68.503 67.6624 69.5034 68.4091C70.1841 68.9172 70.7746 70.0162 71.3587 70.6701C71.8143 71.1802 72.3045 71.5124 72.8253 71.9206C73.3148 72.3042 72.9496 72.2438 72.4869 72.4511C71.5302 72.8795 69.8701 73.1837 68.8265 73.1837C66.7455 73.1837 65.1257 73.1184 63.1855 72.2742C60.9138 71.2858 58.4131 69.4962 56.6419 67.7776C56.0919 67.244 55.5328 66.844 55.1627 66.1356C54.7468 65.3393 56.0841 66.852 56.2408 67.0324C56.9503 67.8495 57.0918 68.8307 57.369 69.8743C57.7678 71.3761 58.2649 72.9917 58.8482 74.4341C61.3237 80.5568 67.4028 82.8984 72.374 86.383C73.6072 87.2474 74.7547 87.9528 76.0971 88.5935C76.991 89.0201 73.4478 89.5395 72.9381 89.5534C70.8308 89.6108 68.4848 89.7569 66.3946 89.2755C65.7645 89.1304 65.1098 89.0374 64.4892 88.8587C64.188 88.772 65.2597 89.3193 65.492 89.5534C67.4206 91.4967 68.5595 94.4461 70.3433 96.5763C72.6297 99.3068 75.429 102.922 78.7922 104.218C80.4516 104.857 81.8479 105.943 83.3677 106.833C83.903 107.146 84.7986 107.742 85.4612 107.742C85.8748 107.742 86.2885 107.742 86.7022 107.742C86.7155 107.742 86.3674 108.065 86.1381 108.424C84.9712 110.253 82.9762 111.718 81.011 112.567C79.7422 113.115 78.3998 113.523 77.0999 113.994C76.0463 114.377 74.869 114.354 73.8407 114.79C71.7354 115.683 68.9353 115.72 66.6954 115.977C63.2728 116.37 59.6066 116.269 56.1906 115.876C55.3078 115.775 54.2061 115.58 53.3576 115.295C52.3759 114.966 53.6928 115.381 54.0094 115.472C56.0915 116.072 57.2932 117.821 59.1741 118.769C63.0216 120.707 66.1585 123.686 70.3558 125.021C76.2665 126.902 82.3538 127.372 88.5073 126.726C98.1411 125.715 107.765 125.952 117.214 123.48C118.569 123.126 119.982 122.991 121.3 122.495C122.863 121.908 124.398 121.08 125.913 120.373C127.803 119.492 129.405 118.233 131.153 117.114C134.611 114.902 138.354 112.31 141.257 109.384C142.515 108.116 143.477 106.449 144.466 104.963C145.017 104.135 146.265 102.713 146.484 101.717C146.666 100.893 147.386 100.304 147.575 99.5067C147.928 98.0189 148.337 96.5161 148.628 95.01C149.232 91.8773 149.599 88.7155 150.22 85.5873C150.748 82.9266 150.475 80.2786 150.897 77.6424C151.241 75.4922 151.237 73.2627 151.737 71.1374C152.087 69.6492 152.759 67.8309 152.815 66.3124C152.883 64.4496 154.737 64.4706 156.25 63.6346C157.487 62.9506 158.528 62.1076 159.785 61.4747C161.1 60.8118 162.436 60.0833 163.696 59.3148C167.073 57.2553 170.287 55.3301 173.461 52.9614C174.736 52.0098 175.865 50.9283 176.958 49.7658C177.314 49.3874 175.288 50.0177 175.003 50.1068C169.057 51.9659 162.551 52.2266 156.45 53.3025C155.686 53.4371 153.393 53.7572 154.169 53.7572C155.316 53.7572 157.027 52.4601 157.779 51.6731C159.071 50.3213 160.484 49.247 161.928 48.0732C163.298 46.9599 164.381 45.6139 165.626 44.3597C167.754 42.2153 169.831 40.0858 171.944 37.9937C172.953 36.9949 171.978 37.5469 171.292 37.8295C169.78 38.4528 168.057 38.844 166.479 39.2568C162.675 40.2517 158.866 41.4411 155.247 42.9956C153.054 43.9375 150.02 45.8351 147.525 45.3323C145.266 44.8771 144.906 42.7062 143.463 41.2525C142.018 39.7958 139.353 38.8761 137.471 38.2968C134.349 37.3354 131.022 37.2182 127.781 37.0464C120.135 36.6409 111.045 38.8461 106.684 45.5976C104.43 49.0869 103.816 53.0732 105.104 57.0412C106.308 60.7476 106.738 64.6942 108.226 68.3586C108.389 68.7607 109.351 67.9971 109.717 68.1818Z" stroke="black" stroke-width="5" stroke-linecap="round"/>
</svg>
