<svg width="231" height="184" viewBox="0 0 231 184" fill="none" xmlns="http://www.w3.org/2000/svg">
<path d="M79.3875 178.805C90.5488 179.178 101.507 178.771 112 174.902C125.382 168.211 141.758 180.739 155.5 173.962C163.051 170.238 169.997 165.198 176.695 160.129C187.568 151.901 198.599 143.281 208.159 133.509C217 124.471 220.02 99.4481 223.88 87.0109C230.603 65.3459 215.016 36.5691 193.191 30.2835C172.934 24.4495 149.612 24.9917 128.753 24.1225C114.929 23.5466 102.196 24.9327 89.2683 29.741C78.9746 33.5698 68.3235 35.815 57.8823 39.1956C40.1639 44.9323 25.1985 57.4643 16.0729 73.8365C9.40588 85.798 7.55429 100.726 5.57217 114.135C3.68741 126.884 6.42498 138.399 14.2905 148.737C22.4064 159.403 32.7125 169.365 45.4828 173.962C56.1406 177.799 68.1368 178.43 79.3875 178.805Z" fill="white"/>
<path d="M114.377 173.962C103.166 178.705 91.3945 179.206 79.3875 178.805C68.1368 178.43 56.1406 177.799 45.4828 173.962C32.7125 169.365 22.4064 159.403 14.2905 148.737C6.42498 138.399 3.68741 126.884 5.57217 114.135C7.55429 100.726 9.40588 85.798 16.0729 73.8365C25.1985 57.4643 40.1639 44.9323 57.8823 39.1956C68.3235 35.815 78.9746 33.5698 89.2683 29.741C102.196 24.9327 114.929 23.5466 128.753 24.1225C149.612 24.9917 172.934 24.4495 193.191 30.2835C215.016 36.5691 230.603 65.3459 223.88 87.0109C220.02 99.4481 217 124.471 208.159 133.509C198.599 143.281 187.568 151.901 176.695 160.129C169.997 165.198 163.051 170.238 155.5 173.962C141.758 180.739 125.382 168.211 112 174.902" stroke="black" stroke-width="10" stroke-linecap="round"/>
<path d="M79.3875 159.805C90.5488 160.178 101.507 159.771 112 155.902C125.382 149.211 141.758 161.739 155.5 154.962C163.051 151.238 169.997 146.198 176.695 141.129C187.568 132.901 198.599 124.281 208.159 114.509C217 105.471 220.02 80.4481 223.88 68.0109C230.603 46.3459 215.016 17.5691 193.191 11.2835C172.934 5.44949 149.612 5.99167 128.753 5.12254C114.929 4.54656 102.196 5.93265 89.2683 10.741C78.9746 14.5698 68.3235 16.815 57.8823 20.1956C40.1639 25.9323 25.1985 38.4643 16.0729 54.8365C9.40588 66.798 7.55429 81.7262 5.57217 95.1347C3.68741 107.884 6.42498 119.399 14.2905 129.737C22.4064 140.403 32.7125 150.365 45.4828 154.962C56.1406 158.799 68.1368 159.43 79.3875 159.805Z" fill="white"/>
<path d="M114.377 154.962C103.166 159.705 91.3945 160.206 79.3875 159.805C68.1368 159.43 56.1406 158.799 45.4828 154.962C32.7125 150.365 22.4064 140.403 14.2905 129.737C6.42498 119.399 3.68741 107.884 5.57217 95.1347C7.55429 81.7262 9.40588 66.798 16.0729 54.8365C25.1985 38.4643 40.1639 25.9323 57.8823 20.1956C68.3235 16.815 78.9746 14.5698 89.2683 10.741C102.196 5.93265 114.929 4.54656 128.753 5.12254C149.612 5.99167 172.934 5.44949 193.191 11.2835C215.016 17.5691 230.603 46.3459 223.88 68.0109C220.02 80.4481 217 105.471 208.159 114.509C198.599 124.281 187.568 132.901 176.695 141.129C169.997 146.198 163.051 151.238 155.5 154.962C141.758 161.739 125.382 149.211 112 155.902" stroke="#237726" stroke-width="10" stroke-linecap="round"/>
<path d="M81.9337 87.6715C80.7921 88.5963 79.3887 89.0774 78.2962 90.069C77.1706 88.3832 75.4328 88.1235 73.5889 87.6121C72.2261 87.2342 70.8181 87.3308 69.4045 87.1255C66.9105 86.7633 65.1904 85.6674 62.6763 85.4164C59.928 85.1419 56.5297 85.3337 54.0342 83.9921C52.3905 83.1083 53.0143 80.38 53.7965 79.0783C55.6347 76.0195 58.208 74.7104 61.1904 73.0726C65.403 70.7592 69.7751 68.5141 74.2308 66.7346C77.1966 65.5501 79.9415 63.8063 83.0036 62.889C86.4831 61.8468 89.8889 60.3177 93.3218 59.091C97.3276 57.6595 101.504 57.2179 105.447 55.5778C106.621 55.0891 107.757 54.5167 108.989 54.1772C110.33 53.8079 111.461 52.8564 112.758 52.3613C115.548 51.296 118.156 49.8449 120.877 48.6225C123.869 47.2781 126.651 45.8588 129.435 44.1598C130.571 43.4666 131.883 42.9842 133.073 42.3794C134.436 41.6867 135.608 40.6668 137.02 40.0769C138.859 39.3082 140.707 38.5648 142.535 37.7743C144.396 36.9696 146.983 36.1628 149.002 36.0177C150.699 35.8957 152.577 36.4323 154.197 36.7892C155.36 37.0454 157.422 37.3005 158.536 37.9879C158.728 38.1069 158.944 38.5988 159.07 38.795C159.583 39.5906 159.778 40.1997 159.926 41.1451C160.282 43.4161 159.22 45.6298 159.51 47.851C159.788 49.9774 159.236 52.156 159.177 54.2959C159.141 55.6189 158.912 57.0294 158.488 58.2839C157.958 59.8506 157.722 61.2707 157.418 62.889C156.95 65.3829 156.948 67.985 156.182 70.414C155.215 73.4802 155.357 76.7399 154.684 79.8617C154.126 82.4519 154.025 85.0987 153.519 87.6952C153.065 90.0282 151.938 92.3836 151.7 94.7572C151.459 97.1672 150.566 99.6487 150.072 102.045C149.342 105.583 148.959 109.217 148.051 112.715C147.533 114.71 147.119 116.727 146.506 118.697C146.036 120.203 145.267 122.4 144.152 123.563C142.937 124.83 141.607 126.174 139.825 126.174C139.076 126.174 138.433 126.011 137.733 125.747C136.994 125.468 136.107 125.55 135.427 125.272C133.743 124.585 131.932 124.447 130.244 123.824C128.275 123.098 126.257 122.548 124.621 121.166C122.953 119.757 121.623 117.951 119.914 116.561C118.932 115.762 117.987 114.907 116.93 114.21C116.061 113.638 114.849 113.783 114.077 113.308C113.323 112.845 111.793 112.99 111.248 113.736C110.175 115.202 109.465 116.838 108.252 118.27C106.438 120.411 104.313 122.69 102.13 124.465C100.933 125.439 99.6708 126.15 98.2907 126.815C97.3899 127.25 95.8277 128.15 94.7958 127.979C93.5252 127.767 93.4569 126.699 92.5372 126.174C91.5008 125.583 90.9216 122.701 90.7541 121.593C90.402 119.264 90.8884 116.95 90.9205 114.638C90.9487 112.616 91.3445 110.878 91.7289 108.917C92.1421 106.808 93.0302 104.905 93.5357 102.84C94.1238 100.438 96.0264 98.2282 97.4467 96.2646C98.8594 94.3116 100.903 93.1662 102.796 91.7663C103.818 91.0101 104.933 90.3124 105.91 89.4993C107.103 88.5073 108.001 87.1797 109.31 86.3303C111.424 84.9584 113.653 83.1813 115.432 81.4046C117.719 79.1209 120.137 76.846 122.588 74.7343C124.131 73.4052 125.44 71.8096 127.082 70.5801C129.829 68.5227 132.287 66.1299 134.559 63.5774C135.952 62.012 136.681 58.4605 134.357 57.4293C132.374 56.5495 129.014 58.3636 127.462 59.3046C123.995 61.4062 120.521 63.3044 116.823 64.9661C114.783 65.8827 113.173 67.0291 111.343 68.2894C109.943 69.2533 108.418 70.1079 107.087 71.1617C105.927 72.0808 104.72 72.5034 103.45 73.2032C100.711 74.7119 98.3219 76.8265 95.5804 78.3662C93.0969 79.761 90.7344 81.2349 88.3529 82.8052C86.137 84.2662 84.1156 85.9038 82.0607 87.5686L81.9337 87.6715Z" fill="black" stroke="black" stroke-width="5" stroke-linecap="round"/>
</svg>
